#!OML:ASF G:\JayActor3\Patient Classification 1\Patient 1\Session 5\male.ASF
:FULLY-SPECIFIED
:DEGREES
445
root -23.873 17.0137 -6.06023 181.285 -87.0827 -183.891
lowerback 0.820841 -0.816004 -1.36797
upperback 1.73692 -1.09861 -0.415543
thorax 1.3359 -0.570474 0.336498
lowerneck -7.71716 0.822181 2.66902
upperneck 10.1581 0.561462 1.35462
head 4.78791 0.429815 0.0176202
rclavicle 2.33914e-014 7.35503e-015
rhumerus -33.0397 -4.84795 -86.7701
rradius 28.6554
rwrist 1.1277
rhand -17.5931 -8.15396
rfingers 7.12502
rthumb 8.66299 -37.9562
lclavicle 2.33914e-014 7.35503e-015
lhumerus -29.5977 5.06885 84.781
lradius 27.7666
lwrist 18.6471
lhand -18.8463 12.8976
lfingers 7.12502
lthumb 7.45354 42.7463
rfemur -28.222 5.30411 19.8981
rtibia 32.4124
rfoot -6.73291 -17.0024
rtoes 10.1649
lfemur 21.8359 8.486 -20.9778
ltibia 1.27222e-014
lfoot -7.84342 -3.67243
ltoes -7.27003
446
root -23.7865 17.0125 -6.0379 181.527 -86.9117 -184.106
lowerback 0.854362 -0.800785 -1.41825
upperback 1.7109 -1.07895 -0.431225
thorax 1.29076 -0.560774 0.349486
lowerneck -7.73043 0.848535 2.67341
upperneck 10.1417 0.59329 1.38164
head 4.78483 0.446992 0.0281496
rclavicle 1.99406e-015 -6.95746e-015
rhumerus -33.0391 -4.97552 -86.7173
rradius 28.521
rwrist 1.29726
rhand -17.5964 -8.12902
rfingers 7.12502
rthumb 8.65982 -37.9314
lclavicle 1.99406e-015 -6.95746e-015
lhumerus -29.6839 5.12701 84.7196
lradius 27.5235
lwrist 18.5735
lhand -18.8303 12.8673
lfingers 7.12502
lthumb 7.469 42.7155
rfemur -28.4219 5.28723 19.7178
rtibia 32.5314
rfoot -7.34672 -15.8961
rtoes 7.10478
lfemur 21.5003 8.61358 -21.1513
ltibia -9.54166e-015
lfoot -7.96439 -3.5139
ltoes -6.77793
447
root -23.7019 17.0107 -6.01666 181.867 -86.7546 -184.425
lowerback 0.880454 -0.789115 -1.47633
upperback 1.6874 -1.06393 -0.449905
thorax 1.25254 -0.553514 0.363581
lowerneck -7.74275 0.869023 2.6787
upperneck 10.1221 0.617749 1.40452
head 4.78027 0.460334 0.0365953
rclavicle 1.0753e-014 1.0138e-014
rhumerus -33.0572 -5.09991 -86.67
rradius 28.4144
rwrist 1.42381
rhand -17.607 -8.1101
rfingers 7.12502
rthumb 8.64965 -37.9129
lclavicle 1.0753e-014 1.0138e-014
lhumerus -29.7684 5.20158 84.646
lradius 27.2513
lwrist 18.4738
lhand -18.7976 12.8551
lfingers 7.12502
lthumb 7.50052 42.7021
rfemur -28.5895 5.30246 19.5314
rtibia 32.7371
rfoot -8.16446 -14.7725
rtoes 4.18776
lfemur 21.174 8.72628 -21.3309
ltibia -3.18055e-014
lfoot -8.06275 -3.34023
ltoes -6.35538
448
root -23.6195 17.0087 -5.99654 182.398 -86.6086 -184.943
lowerback 0.897205 -0.778602 -1.54656
upperback 1.67202 -1.05033 -0.473848
thorax 1.22801 -0.547224 0.378836
lowerneck -7.76292 0.882952 2.68346
upperneck 10.0992 0.633785 1.42388
head 4.7761 0.469374 0.0433992
rclavicle 3.87009e-015 1.98785e-015
rhumerus -33.0792 -5.22237 -86.6304
rradius 28.3185
rwrist 1.49265
rhand -17.6495 -8.07302
rfingers 7.12502
rthumb 8.60858 -37.8775
lclavicle 3.87009e-015 1.98785e-015
lhumerus -29.8386 5.28894 84.5627
lradius 26.951
lwrist 18.3537
lhand -18.7493 12.8649
lfingers 7.12502
lthumb 7.54712 42.7103
rfemur -28.7232 5.34541 19.3375
rtibia 33.0426
rfoot -9.16493 -13.7799
rtoes 1.29567
lfemur 20.8616 8.82726 -21.5233
ltibia 3.18055e-014
lfoot -8.14121 -3.14823
ltoes -5.98317
449
root -23.539 17.0061 -5.97735 183.072 -86.4739 -185.616
lowerback 0.908386 -0.770527 -1.62363
upperback 1.66315 -1.03991 -0.503784
thorax 1.21333 -0.542695 0.391613
lowerneck -7.77358 0.894766 2.68717
upperneck 10.0628 0.648021 1.44201
head 4.76493 0.477258 0.0497489
rclavicle 1.05853e-014 9.14409e-015
rhumerus -33.1046 -5.34102 -86.6001
rradius 28.2297
rwrist 1.51705
rhand -17.7094 -8.02638
rfingers 7.12502
rthumb 8.55075 -37.8332
lclavicle 1.05853e-014 9.14409e-015
lhumerus -29.8972 5.39494 84.4648
lradius 26.6237
lwrist 18.2041
lhand -18.6759 12.9039
lfingers 7.12502
lthumb 7.61801 42.7467
rfemur -28.8213 5.39469 19.1462
rtibia 33.4561
rfoot -10.2766 -13.0275
rtoes -1.24751
lfemur 20.5644 8.91685 -21.7284
ltibia -1.90833e-014
lfoot -8.20892 -2.93232
ltoes -5.69475
450
root -23.4602 17.0031 -5.95873 183.968 -86.3528 -186.524
lowerback 0.914906 -0.765519 -1.70888
upperback 1.66579 -1.0335 -0.541174
thorax 1.21315 -0.54046 0.401135
lowerneck -7.7737 0.906314 2.68957
upperneck 10.0082 0.663583 1.45572
head 4.74491 0.485312 0.0547724
rclavicle -1.33496e-014 1.59028e-015
rhumerus -33.1189 -5.45017 -86.579
rradius 28.1331
rwrist 1.5014
rhand -17.7881 -7.96239
rfingers 7.12502
rthumb 8.47486 -37.7723
lclavicle -1.33496e-014 1.59028e-015
lhumerus -29.9359 5.51895 84.3559
lradius 26.2707
lwrist 18.0306
lhand -18.5824 12.9754
lfingers 7.12502
lthumb 7.70822 42.8149
rfemur -28.885 5.42836 18.9536
rtibia 33.9873
rfoot -11.4514 -12.5562
rtoes -3.20533
lfemur 20.2889 8.99224 -21.9514
ltibia 8.5875e-014
lfoot -8.2657 -2.70099
ltoes -5.41937
451
root -23.3829 16.999 -5.94092 184.868 -86.2357 -187.447
lowerback 0.918147 -0.761825 -1.79377
upperback 1.67439 -1.02878 -0.580529
thorax 1.22091 -0.539188 0.408324
lowerneck -7.76543 0.919334 2.69017
upperneck 9.9472 0.682595 1.46318
head 4.72083 0.494568 0.0581373
rclavicle -4.65902e-016 4.17448e-015
rhumerus -33.1272 -5.5438 -86.5663
rradius 28.0297
rwrist 1.46655
rhand -17.8753 -7.87892
rfingers 7.12502
rthumb 8.39067 -37.6923
lclavicle -4.65902e-016 4.17448e-015
lhumerus -29.9639 5.67068 84.2335
lradius 25.8931
lwrist 17.8308
lhand -18.4911 13.0539
lfingers 7.12502
lthumb 7.79635 42.8901
rfemur -28.9163 5.43433 18.7826
rtibia 34.6402
rfoot -12.6302 -12.336
rtoes -4.48278
lfemur 20.0292 9.06304 -22.1788
ltibia -2.54444e-014
lfoot -8.31413 -2.45032
ltoes -5.19971
452
root -23.3069 16.9936 -5.92354 185.748 -86.1249 -188.358
lowerback 0.91924 -0.761246 -1.87364
upperback 1.68752 -1.02816 -0.621138
thorax 1.23448 -0.540003 0.411317
lowerneck -7.74724 0.935502 2.69211
upperneck 9.88239 0.707307 1.46054
head 4.69342 0.506069 0.0581142
rclavicle 1.50952e-015 -2.98177e-015
rhumerus -33.1359 -5.61807 -86.5599
rradius 27.9318
rwrist 1.43318
rhand -17.9559 -7.75508
rfingers 7.12502
rthumb 8.31291 -37.5715
lclavicle 1.50952e-015 -2.98177e-015
lhumerus -29.9888 5.84968 84.099
lradius 25.5008
lwrist 17.6094
lhand -18.4165 13.1195
lfingers 7.12502
lthumb 7.86839 42.9531
rfemur -28.9205 5.38712 18.6373
rtibia 35.4175
rfoot -13.7641 -12.2993
rtoes -5.07068
lfemur 19.7874 9.12606 -22.4056
ltibia 6.36111e-015
lfoot -8.35188 -2.2001
ltoes -4.90188
453
root -23.2319 16.9873 -5.90649 186.406 -86.0182 -189.056
lowerback 0.922265 -0.763119 -1.93548
upperback 1.70205 -1.03082 -0.657545
thorax 1.24822 -0.542288 0.408533
lowerneck -7.72682 0.953636 2.69583
upperneck 9.82196 0.735808 1.44556
head 4.66729 0.518908 0.0538212
rclavicle -1.758e-015 -1.98785e-016
rhumerus -33.1579 -5.66649 -86.5574
rradius 27.8623
rwrist 1.41543
rhand -18.0144 -7.56682
rfingers 7.12502
rthumb 8.2564 -37.3855
lclavicle -1.758e-015 -1.98785e-016
lhumerus -30.0169 6.06126 83.9528
lradius 25.0963
lwrist 17.362
lhand -18.353 13.1784
lfingers 7.12502
lthumb 7.92965 43.0096
rfemur -28.8986 5.27258 18.5366
rtibia 36.3146
rfoot -14.7973 -12.379
rtoes -5.12963
lfemur 19.5576 9.18483 -22.6177
ltibia -9.54166e-015
lfoot -8.38162 -1.94543
ltoes -4.63956
454
root -23.1578 16.9799 -5.88986 186.727 -85.914 -189.415
lowerback 0.928588 -0.765862 -1.97024
upperback 1.7134 -1.0347 -0.68709
thorax 1.25651 -0.544791 0.3977
lowerneck -7.71756 0.972106 2.70079
upperneck 9.77482 0.764814 1.42204
head 4.64842 0.531808 0.0465539
rclavicle 1.74558e-014 4.77083e-015
rhumerus -33.1923 -5.68444 -86.56
rradius 27.8167
rwrist 1.405
rhand -18.0607 -7.30454
rfingers 7.12502
rthumb 8.21179 -37.125
lclavicle 1.74558e-014 4.77083e-015
lhumerus -30.0533 6.29609 83.7987
lradius 24.6898
lwrist 17.0991
lhand -18.3094 13.2228
lfingers 7.12502
lthumb 7.97175 43.0524
rfemur -28.8628 5.09836 18.4874
rtibia 37.3267
rfoot -15.7239 -12.5276
rtoes -4.77601
lfemur 19.3313 9.241 -22.8027
ltibia 4.45278e-014
lfoot -8.40207 -1.69833
ltoes -4.3643
